<?xml version="1.0" encoding="UTF-8" standalone="no"?>
<svg
   xmlns:dc="http://purl.org/dc/elements/1.1/"
   xmlns:cc="http://creativecommons.org/ns#"
   xmlns:rdf="http://www.w3.org/1999/02/22-rdf-syntax-ns#"
   xmlns:svg="http://www.w3.org/2000/svg"
   xmlns="http://www.w3.org/2000/svg"
   xmlns:sodipodi="http://sodipodi.sourceforge.net/DTD/sodipodi-0.dtd"
   xmlns:inkscape="http://www.inkscape.org/namespaces/inkscape"
   width="100"
   height="100"
   viewBox="0 0 1 1"
   preserveAspectRatio="none"
   id="svg2"
   sodipodi:version="0.32"
   inkscape:version="0.92.4 (5da689c313, 2019-01-14)"
   sodipodi:docname="SVG drawing.svg"
   version="1.0">
  <metadata
     id="metadata43">
    <rdf:RDF>
      <cc:Work
         rdf:about="">
        <dc:format>image/svg+xml</dc:format>
        <dc:type
           rdf:resource="http://purl.org/dc/dcmitype/StillImage" />
      </cc:Work>
    </rdf:RDF>
  </metadata>
  <defs
     id="defs41" />
  <sodipodi:namedview
     inkscape:window-height="1567"
     inkscape:window-width="2560"
     inkscape:pageshadow="2"
     inkscape:pageopacity="0.0"
     guidetolerance="10.0"
     gridtolerance="10.0"
     objecttolerance="10.0"
     borderopacity="1.0"
     bordercolor="#666666"
     pagecolor="#ffffff"
     id="base"
     inkscape:zoom="13"
     inkscape:cx="50"
     inkscape:cy="50"
     inkscape:window-x="0"
     inkscape:window-y="0"
     inkscape:current-layer="text3724"
     width="100px"
     height="100px"
     showgrid="false"
     inkscape:window-maximized="1" />
  <title
     id="title4">SVG drawing</title>
  <desc
     id="desc6">This was produced by version 4.1 of GNU libplot, a free library for exporting 2-D vector graphics.</desc>
  <path
     style="font-size:0.17412023px;font-style:normal;font-variant:normal;font-weight:normal;font-stretch:normal;letter-spacing:normal;word-spacing:normal;text-anchor:start;fill:black;fill-opacity:1;stroke:none;stroke-linecap:butt;stroke-linejoin:miter;stroke-miterlimit:10.43299961;stroke-dashoffset:0;stroke-opacity:1;font-family:CMU Classical Serif"
     d="M 0.068392662,0.22374436 C 0.068392662,0.22548556 0.069263266,0.2258338 0.072223307,0.2258338 C 0.074835108,0.2258338 0.079014002,0.22548556 0.085282324,0.22548556 C 0.095903648,0.22548556 0.099386067,0.22600792 0.10304259,0.22600792 C 0.10565439,0.22600792 0.10652499,0.22426672 0.10635087,0.22269964 C 0.10617675,0.21939136 0.098515462,0.22148079 0.098515462,0.21538659 C 0.098515462,0.21225243 0.10130139,0.20929238 0.10356495,0.2068547 L 0.13421011,0.17168241 C 0.13838899,0.18404494 0.14988093,0.21277479 0.14988093,0.21503835 C 0.14988093,0.21608307 0.14935857,0.21712779 0.14779149,0.21817251 C 0.14291613,0.22165491 0.13769251,0.21921724 0.13769251,0.22374436 C 0.13769251,0.2249632 0.138389,0.2258338 0.14082668,0.2258338 C 0.14465732,0.2258338 0.1486621,0.22548556 0.16032814,0.22548556 C 0.16973063,0.22548556 0.17460601,0.2258338 0.17704369,0.2258338 C 0.17982961,0.2258338 0.18104845,0.22461496 0.18104845,0.223222 C 0.18104845,0.22287376 0.18104845,0.22252552 0.18087433,0.2223514 C 0.17982961,0.21869488 0.17147183,0.22252551 0.16729295,0.21817251 C 0.16624823,0.21695367 0.16555175,0.21503835 0.16502939,0.21329715 L 0.14988093,0.17237889 C 0.14813973,0.16802589 0.14657264,0.16367288 0.14500556,0.15931987 C 0.15614925,0.14747971 0.17408365,0.12466994 0.18244141,0.11840162 C 0.19515218,0.10934738 0.20263936,0.11509333 0.20263936,0.10934737 C 0.20263936,0.10760617 0.20176876,0.10725792 0.1986346,0.10725792 C 0.19602279,0.10725792 0.19166978,0.10760617 0.1848791,0.10760617 C 0.17478013,0.10760617 0.16973064,0.1070838 0.16816355,0.1070838 C 0.16607411,0.1070838 0.16450703,0.10865089 0.16450703,0.11004385 C 0.16450703,0.11387449 0.17269068,0.11143682 0.17269068,0.11770514 C 0.17269068,0.12066518 0.16990476,0.12362523 0.16833767,0.12536643 C 0.16328819,0.13111239 0.14570204,0.15131035 0.14309024,0.15409627 C 0.13873724,0.14086314 0.13003122,0.12031694 0.13003122,0.11787926 C 0.13003122,0.11335214 0.13960784,0.11248153 0.14030432,0.11230741 C 0.14117492,0.11195917 0.14239376,0.11039209 0.14239376,0.10917325 C 0.14239376,0.10812853 0.14152316,0.10725792 0.13908548,0.10725792 C 0.1366478,0.10725792 0.13142417,0.10760617 0.11923577,0.10760617 C 0.10913681,0.10760617 0.10408731,0.1070838 0.10234611,0.1070838 C 0.099908426,0.1070838 0.098863702,0.10865089 0.098863702,0.11004385 C 0.098863702,0.11248153 0.10095315,0.11248153 0.10304259,0.11248153 C 0.11679807,0.11300389 0.11035566,0.11108863 0.13229479,0.16663292 C 0.12411114,0.17533893 0.097644853,0.20737706 0.090157691,0.21347127 C 0.076750446,0.22409259 0.068392662,0.21765016 0.068392662,0.22374436"
     id="text12" />
  <path
     style="font-size:0.12188377px;font-style:normal;font-variant:normal;font-weight:normal;font-stretch:normal;letter-spacing:normal;word-spacing:normal;text-anchor:start;fill:black;fill-opacity:1;stroke:none;stroke-linecap:butt;stroke-linejoin:miter;stroke-miterlimit:10.43299961;stroke-dashoffset:0;stroke-opacity:1;font-family:CMU Classical Serif"
     d="M 0.44269459,0.13296454 C 0.44269459,0.13832742 0.44781371,0.14100887 0.45232341,0.14100887 C 0.46365859,0.14100887 0.46841207,0.12272629 0.47109351,0.11029416 C 0.47243423,0.1040781 0.47913784,0.069584979 0.47950349,0.06726919 L 0.48632898,0.06726919 C 0.48706028,0.06726919 0.48791347,0.067391073 0.48864477,0.067391073 C 0.49071679,0.067391073 0.49108245,0.067269189 0.49156998,0.067025422 C 0.49242317,0.066537888 0.4929107,0.065319048 0.49242317,0.064465863 C 0.49193563,0.063490794 0.49059491,0.063612676 0.48961984,0.063612676 L 0.48023479,0.063612676 C 0.48450072,0.04301434 0.48462261,0.032897966 0.49132621,0.032897966 C 0.49266693,0.032897966 0.49425143,0.033507386 0.4959578,0.03496999 C 0.4921794,0.035579408 0.49059491,0.038504622 0.49059491,0.040820411 C 0.49059491,0.0431362 0.49230129,0.044720692 0.49473896,0.044720692 C 0.4981517,0.044720692 0.50071126,0.041673594 0.50071126,0.038138968 C 0.50071126,0.033263622 0.49620156,0.030094639 0.49083868,0.030094639 C 0.4862071,0.030094639 0.48255058,0.033141735 0.48084421,0.035213758 C 0.4764564,0.040089104 0.47499379,0.049474173 0.47231235,0.063612676 L 0.46451178,0.063612676 C 0.46207411,0.063612676 0.46109904,0.06434398 0.46109904,0.065440933 C 0.46109904,0.0656847 0.46122092,0.065928468 0.46122092,0.066172236 C 0.46158657,0.067269189 0.4629273,0.067391073 0.46487744,0.067391073 L 0.46646192,0.067391073 C 0.4681683,0.067391073 0.46987467,0.06726919 0.47158104,0.06726919 C 0.47158104,0.06726919 0.46353671,0.11041606 0.46012397,0.12455456 C 0.45853948,0.13125816 0.45695499,0.13832743 0.45220152,0.13832743 C 0.4501295,0.13832743 0.44866689,0.13723047 0.44744806,0.13613352 C 0.45122645,0.13540222 0.45281094,0.13259889 0.45281094,0.1302831 C 0.45281094,0.12808919 0.45110457,0.12638282 0.44878878,0.12638282 C 0.44513227,0.12638282 0.44269459,0.1295518 0.44269459,0.13296454"
     id="text16" />
  <path
     style="font-size:0.17412023px;font-style:normal;font-variant:normal;font-weight:normal;font-stretch:normal;letter-spacing:normal;word-spacing:normal;text-anchor:start;fill:black;fill-opacity:1;stroke:none;stroke-linecap:butt;stroke-linejoin:miter;stroke-miterlimit:10.43299961;stroke-dashoffset:0;stroke-opacity:1;font-family:CMU Classical Serif"
     d="M 0.80026348,0.11004385 C 0.80026348,0.11265565 0.80304941,0.11248153 0.80513885,0.11248153 C 0.81210365,0.11282977 0.81367074,0.11282978 0.81576018,0.11944634 L 0.83369457,0.1758613 C 0.83404281,0.1767319 0.83421693,0.17725426 0.83421693,0.17812486 C 0.83421693,0.18056254 0.83282396,0.18578617 0.82672976,0.20964062 C 0.82551092,0.2146901 0.82481443,0.21817251 0.82168027,0.21956547 C 0.81593431,0.22200316 0.80705417,0.21852076 0.80705417,0.22374436 C 0.80705417,0.22461496 0.80740242,0.22600792 0.81018834,0.22600792 C 0.81210366,0.22600792 0.81784964,0.22548556 0.82951568,0.22548556 C 0.84152997,0.22548556 0.84762419,0.22600792 0.84971363,0.22600792 C 0.85284779,0.22600792 0.85337015,0.22391848 0.85337015,0.22304788 C 0.85337015,0.2179984 0.83891817,0.22322199 0.83891817,0.21747603 C 0.83891817,0.21521247 0.84065938,0.20859587 0.84727595,0.1819555 C 0.84797243,0.17916958 0.84797243,0.17864722 0.85093247,0.17516482 L 0.890806,0.12641115 C 0.89655197,0.12031695 0.90229795,0.11352625 0.91291927,0.11248153 C 0.91361575,0.11248153 0.91692404,0.11248153 0.91692404,0.10934737 C 0.91692404,0.10760617 0.91587931,0.10725792 0.91309339,0.10725792 C 0.91065571,0.10725792 0.90682506,0.10760617 0.90160146,0.10760617 C 0.8923731,0.10760617 0.88767184,0.1070838 0.88627888,0.1070838 L 0.88593064,0.1070838 C 0.8838412,0.1070838 0.88262235,0.10830265 0.88262235,0.11021797 C 0.88297059,0.11404861 0.89028364,0.11091446 0.89028364,0.11666042 C 0.89028364,0.1190981 0.88784596,0.12240639 0.88384119,0.12728175 C 0.85511138,0.162454 0.85145483,0.16663293 0.84797243,0.17116005 C 0.84797243,0.17116005 0.83090864,0.11874986 0.83090864,0.11700866 C 0.83090864,0.1112627 0.84135586,0.11352625 0.84309706,0.11161093 C 0.84361942,0.11108857 0.84396766,0.11039209 0.84396766,0.10952149 C 0.84396766,0.10830265 0.84309706,0.10725792 0.84065938,0.10725792 C 0.83804758,0.10725792 0.83299808,0.10760617 0.82150615,0.10760617 C 0.81088483,0.10760617 0.80548709,0.1070838 0.80374589,0.1070838 C 0.80078585,0.1070838 0.80026348,0.10899913 0.80026348,0.11004385"
     id="text20" />
  <path
     style="font-size:0.17412023px;font-style:normal;font-variant:normal;font-weight:normal;font-stretch:normal;letter-spacing:normal;word-spacing:normal;text-anchor:start;fill:black;fill-opacity:1;stroke:none;stroke-linecap:butt;stroke-linejoin:miter;stroke-miterlimit:10.43299961;stroke-dashoffset:0;stroke-opacity:1;font-family:CMU Classical Serif"
     d="M 0.78307463,0.92042738 C 0.78307463,0.92269094 0.78551231,0.92251682 0.78655704,0.92251682 L 0.85794633,0.92251682 C 0.86195109,0.92251682 0.86108051,0.92164618 0.87309479,0.88246917 C 0.87344303,0.88142445 0.87413951,0.87968324 0.87413951,0.8784644 C 0.87413951,0.87724556 0.87361715,0.87620084 0.87187595,0.87620084 C 0.86926415,0.87620084 0.86874178,0.87846441 0.86821942,0.88020561 C 0.85951342,0.90771658 0.85150385,0.91677086 0.82277404,0.91677086 L 0.79996429,0.91677086 L 0.88789501,0.81160223 C 0.88928797,0.80986103 0.89155154,0.80759747 0.89155154,0.80550803 C 0.89155154,0.80376683 0.88981033,0.8035927 0.88737265,0.8035927 L 0.81963988,0.8035927 C 0.81755044,0.8035927 0.81615747,0.80376683 0.81511275,0.80707511 C 0.81511275,0.80707511 0.80536202,0.83911323 0.80536202,0.84050619 C 0.80536202,0.84189915 0.80658086,0.84276976 0.8077997,0.84276976 C 0.80849618,0.84276976 0.80919267,0.84242152 0.80971503,0.84207328 C 0.81337155,0.83859087 0.81371983,0.80899043 0.85011092,0.80899043 L 0.87501011,0.80899043 L 0.78603467,0.91502965 C 0.78568643,0.91555201 0.78307463,0.91833794 0.78307463,0.92042738"
     id="text22" />
  <path
     style="font-size:0.12188377px;font-style:normal;font-variant:normal;font-weight:normal;font-stretch:normal;letter-spacing:normal;word-spacing:normal;text-anchor:start;fill:black;fill-opacity:1;stroke:none;stroke-linecap:butt;stroke-linejoin:miter;stroke-miterlimit:10.43299961;stroke-dashoffset:0;stroke-opacity:1;font-family:CMU Classical Serif"
     d="M 0.89338829,0.5921793 C 0.89338829,0.5988829 0.90313899,0.59937044 0.90837999,0.59937044 C 0.92227473,0.59937044 0.929344,0.59010727 0.93153791,0.5853538 C 0.93226921,0.58364743 0.93263486,0.58181917 0.9331224,0.57999092 L 0.94616396,0.52770278 C 0.94628584,0.52721524 0.94640773,0.52672771 0.94640773,0.52611829 C 0.94640773,0.52429004 0.94494512,0.52294931 0.94311687,0.52294931 C 0.94226368,0.52294931 0.93946035,0.52319308 0.9383634,0.52733713 C 0.93604761,0.52343685 0.93336616,0.52038975 0.92800328,0.52038975 C 0.91459608,0.52038975 0.90033566,0.5381848 0.90033566,0.55561416 C 0.90033566,0.56621804 0.90630798,0.57426238 0.91520548,0.57426238 C 0.92044648,0.57426238 0.92459054,0.57121528 0.92824705,0.56780254 C 0.92751574,0.57072775 0.92471242,0.58230671 0.92385923,0.58437873 C 0.92251851,0.58803524 0.91776503,0.59656711 0.90837999,0.59656711 C 0.90399218,0.59656711 0.90118885,0.59583581 0.89960436,0.59522639 C 0.90070131,0.59461697 0.90350464,0.59303248 0.90350464,0.58961974 C 0.90350464,0.58730395 0.9015545,0.58571946 0.89936059,0.58571946 C 0.89570408,0.58571946 0.89338829,0.58925409 0.89338829,0.5921793 M 0.90874564,0.56097705 C 0.90874564,0.5561017 0.91191463,0.53855043 0.91776504,0.53038422 C 0.92020271,0.52697148 0.92398112,0.52319308 0.92812516,0.52319308 C 0.93482876,0.52319308 0.93653514,0.5320906 0.93653514,0.53404074 C 0.93653514,0.53562522 0.93044095,0.55914879 0.9300753,0.56000198 C 0.92885647,0.56243965 0.92227473,0.57145905 0.91557113,0.57145905 C 0.91142709,0.57145905 0.90874564,0.56743688 0.90874564,0.56097705"
     id="text24" />
  <path
     style="font-size:0.12188377px;font-style:normal;font-variant:normal;font-weight:normal;font-stretch:normal;letter-spacing:normal;word-spacing:normal;text-anchor:start;fill:black;fill-opacity:1;stroke:none;stroke-linecap:butt;stroke-linejoin:miter;stroke-miterlimit:10.43299961;stroke-dashoffset:0;stroke-opacity:1;font-family:CMU Classical Serif"
     d="M 0.22688285,0.70933026 C 0.22688285,0.71603386 0.23663355,0.7165214 0.24187455,0.7165214 C 0.25576929,0.7165214 0.26283856,0.70725823 0.26503247,0.70250477 C 0.26576377,0.7007984 0.26612942,0.69897014 0.26661696,0.69714188 L 0.27965852,0.64485374 C 0.2797804,0.64436621 0.27990229,0.64387867 0.27990229,0.64326925 C 0.27990229,0.641441 0.27843968,0.64010027 0.27661142,0.64010027 C 0.27575824,0.64010027 0.27295491,0.64034405 0.27185796,0.64448809 C 0.26954217,0.64058781 0.26686072,0.63754072 0.26149784,0.63754072 C 0.24809064,0.63754072 0.23383022,0.65533576 0.23383022,0.67276513 C 0.23383022,0.683369 0.23980253,0.69141334 0.24870004,0.69141334 C 0.25394104,0.69141334 0.2580851,0.68836625 0.2617416,0.6849535 C 0.2610103,0.68787871 0.25820697,0.69945767 0.25735379,0.7015297 C 0.25601307,0.70518621 0.25125959,0.71371807 0.24187455,0.71371807 C 0.23748674,0.71371807 0.23468341,0.71298677 0.23309892,0.71237735 C 0.23419587,0.71176793 0.2369992,0.71018344 0.2369992,0.7067707 C 0.2369992,0.70445491 0.23504906,0.70287042 0.23285515,0.70287042 C 0.22919864,0.70287042 0.22688285,0.70640505 0.22688285,0.70933026 M 0.2422402,0.67812801 C 0.2422402,0.67325267 0.24540918,0.65570139 0.2512596,0.64753518 C 0.25369727,0.64412244 0.25747568,0.64034404 0.26161972,0.64034404 C 0.26832332,0.64034404 0.2700297,0.64924156 0.2700297,0.6511917 C 0.2700297,0.65277619 0.26393551,0.67629976 0.26356986,0.67715294 C 0.26235102,0.67959061 0.25576929,0.68861002 0.24906569,0.68861002 C 0.24492165,0.68861002 0.2422402,0.68458785 0.2422402,0.67812801"
     id="text30" />
  <path
     style="font-size:0.12188377px;font-style:normal;font-variant:normal;font-weight:normal;font-stretch:normal;letter-spacing:normal;word-spacing:normal;text-anchor:start;fill:black;fill-opacity:1;stroke:none;stroke-linecap:butt;stroke-linejoin:miter;stroke-miterlimit:10.43299961;stroke-dashoffset:0;stroke-opacity:1;font-family:CMU Classical Serif"
     d="M 0.389109,0.70835519 C 0.389109,0.71371807 0.39422812,0.71639952 0.39873782,0.71639952 C 0.410073,0.71639952 0.41482648,0.69811694 0.41750792,0.68568481 C 0.41884864,0.67946874 0.42555225,0.64497562 0.4259179,0.64265983 L 0.43274339,0.64265983 C 0.43347469,0.64265983 0.43432788,0.64278172 0.43505918,0.64278172 C 0.4371312,0.64278172 0.43749686,0.64265983 0.43798439,0.64241607 C 0.43883758,0.64192853 0.43932511,0.64070969 0.43883758,0.63985651 C 0.43835004,0.63888144 0.43700932,0.63900332 0.43603425,0.63900332 L 0.4266492,0.63900332 C 0.43091513,0.61840498 0.43103702,0.60828861 0.43774063,0.60828861 C 0.43908135,0.60828861 0.44066584,0.60889803 0.44237221,0.61036063 C 0.43859382,0.61097005 0.43700932,0.61389527 0.43700932,0.61621106 C 0.43700932,0.61852684 0.4387157,0.62011134 0.44115337,0.62011134 C 0.44456611,0.62011134 0.44712568,0.61706424 0.44712568,0.61352961 C 0.44712568,0.60865427 0.44261597,0.60548528 0.43725309,0.60548528 C 0.43262151,0.60548528 0.42896499,0.60853238 0.42725862,0.6106044 C 0.42287081,0.61547975 0.4214082,0.62486482 0.41872676,0.63900332 L 0.4109262,0.63900332 C 0.40848852,0.63900332 0.40751345,0.63973462 0.40751345,0.64083158 C 0.40751345,0.64107534 0.40763533,0.64131911 0.40763533,0.64156288 C 0.40800098,0.64265983 0.40934171,0.64278172 0.41129185,0.64278172 L 0.41287634,0.64278172 C 0.41458271,0.64278172 0.41628908,0.64265983 0.41799545,0.64265983 C 0.41799545,0.64265983 0.40995112,0.6858067 0.40653838,0.69994521 C 0.40495389,0.70664881 0.4033694,0.71371807 0.39861593,0.71371807 C 0.39654391,0.71371807 0.3950813,0.71262112 0.39386247,0.71152417 C 0.39764086,0.71079286 0.39922535,0.70798953 0.39922535,0.70567374 C 0.39922535,0.70347984 0.39751898,0.70177346 0.39520319,0.70177346 C 0.39154668,0.70177346 0.389109,0.70494245 0.389109,0.70835519"
     id="text32" />
  <path
     style="color:black;fill:black;fill-opacity:1;fill-rule:nonzero;stroke:none;stroke-width:1.5;stroke-linecap:round;stroke-linejoin:round;stroke-miterlimit:4;stroke-dashoffset:0;stroke-opacity:1;marker:none;marker-start:none;marker-mid:none;marker-end:none;visibility:visible;display:inline;overflow:visible"
     d="M 0.28718734,0.18143991 L 0.68471099,0.18143991 L 0.68471099,0.16920566 L 0.72665703,0.18493541 L 0.68471099,0.20066516 L 0.68471099,0.18843091 L 0.28718734,0.18843091 L 0.28718734,0.18143991 z "
     id="rect2879" />
  <path
     style="color:black;fill:black;fill-opacity:1;fill-rule:nonzero;stroke:none;stroke-width:1.5;stroke-linecap:round;stroke-linejoin:round;stroke-miterlimit:4;stroke-dashoffset:0;stroke-opacity:1;marker:none;marker-start:none;marker-mid:none;marker-end:none;visibility:visible;display:inline;overflow:visible"
     inkscape:transform-center-x="15.090048"
     inkscape:transform-center-y="-15.090049"
     d="M 0.24354169,0.29616331 L 0.68931586,0.74193743 L 0.69796677,0.73328651 L 0.71650452,0.77406945 L 0.67572163,0.75553174 L 0.68437254,0.74688081 L 0.23859837,0.30110669 L 0.24354169,0.29616331 z "
     id="path2882" />
  <path
     style="color:black;fill:black;fill-opacity:1;fill-rule:nonzero;stroke:none;stroke-width:1.5;stroke-linecap:round;stroke-linejoin:round;stroke-miterlimit:4;stroke-dashoffset:0;stroke-opacity:1;marker:none;marker-start:none;marker-mid:none;marker-end:none;visibility:visible;display:inline;overflow:visible"
     d="M 0.83795832,0.29250349 L 0.83795832,0.73197314 L 0.85019259,0.73197314 L 0.83446284,0.77391917 L 0.81873309,0.73197314 L 0.83096727,0.73197314 L 0.83096727,0.29250349 L 0.83795832,0.29250349 z "
     id="path2885" />
  <g
     aria-label="∘"
     style="font-style:normal;font-variant:normal;font-weight:normal;font-stretch:normal;font-size:0.13333333px;line-height:125%;font-family:'CMU Classical Serif';-inkscape-font-specification:'CMU Classical Serif';letter-spacing:0px;word-spacing:0px;fill:#000000;fill-opacity:1;stroke:none;stroke-width:0.01px;stroke-linecap:butt;stroke-linejoin:miter;stroke-opacity:1"
     id="text3724">
    <path
       d="m 0.33502973,0.65186403 q -0.004688,0 -0.00791,0.003281 -0.003223,0.003223 -0.003223,0.00791 0,0.004629 0.003223,0.007852 0.003223,0.003164 0.00791,0.003164 0.004687,0 0.00791,-0.003164 0.003223,-0.003223 0.003223,-0.007852 0,-0.004629 -0.003281,-0.00791 -0.003223,-0.003281 -0.007852,-0.003281 z m 0,-0.007559 q 0.00375,0 0.007207,0.001465 0.003457,0.001406 0.005977,0.004102 0.002695,0.002637 0.004043,0.005977 0.001348,0.00334 0.001348,0.007207 0,0.007734 -0.005449,0.013125 -0.005391,0.005332 -0.0132422,0.005332 -0.00791,0 -0.0131836,-0.005273 -0.005273,-0.005273 -0.005273,-0.0131836 0,-0.007852 0.005391,-0.0133008 0.005391,-0.005449 0.0131836,-0.005449 z"
       style="font-style:normal;font-variant:normal;font-weight:normal;font-stretch:normal;font-size:0.12px;font-family:cmr10;-inkscape-font-specification:cmr10;stroke-width:0.01px"
       id="path3732" />
  </g>
</svg>
